<svg width="348" height="80" fill="none" xmlns="http://www.w3.org/2000/svg"><path d="M110 23.7h-6v-2.9h15.4v2.9h-6V39H110V23.7zm14.4 3.5c.9-1.5 2.6-2.2 4.9-2.2v3.1c-.3-.1-.5-.1-.8-.1-1.3 0-2.2.4-3 1.1-.7.7-1.1 1.8-1.1 3.2V39h-3.2V25.2h3.1l.1 2zm12.9-2.2c2 0 3.6.5 4.7 1.5s1.6 2.4 1.6 4.4V39h-3.1v-1.7c-.4.6-1 1.1-1.7 1.4-.7.3-1.6.5-2.6.5s-1.9-.2-2.7-.5c-.8-.4-1.4-.9-1.8-1.5-.4-.6-.6-1.4-.6-2.2 0-1.2.5-2.2 1.4-3 .9-.8 2.4-1.1 4.4-1.1h3.6v-.2c0-1-.3-1.7-.9-2.2-.6-.5-1.4-.8-2.6-.8-.8 0-1.5.1-2.3.4-.7.2-1.4.6-1.9 1l-1.3-2.4c.7-.6 1.6-1 2.6-1.3 1-.2 2.1-.4 3.2-.4zm-.4 11.9c.8 0 1.5-.2 2.2-.5.6-.4 1.1-.9 1.4-1.6v-1.6H137c-1.9 0-2.8.6-2.8 1.8 0 .6.2 1.1.7 1.4.5.3 1.1.5 2 .5zM155.6 25c1.7 0 3.2.5 4.2 1.5 1.1 1 1.6 2.5 1.6 4.5v7.9h-3.2v-7.5c0-1.2-.3-2.1-.9-2.7-.6-.6-1.4-.9-2.4-.9-1.2 0-2.1.4-2.8 1.1-.7.7-1 1.7-1 3.1v7h-3.2V25.2h3.1V27c.5-.6 1.2-1.1 2-1.5.7-.3 1.6-.5 2.6-.5zm14.2 14.3c-1.1 0-2.2-.1-3.3-.4-1.1-.3-1.9-.7-2.6-1.1l1.2-2.5c.6.4 1.4.8 2.2 1 .9.2 1.7.4 2.6.4 1.9 0 2.9-.5 2.9-1.5 0-.5-.2-.8-.8-1-.5-.2-1.3-.4-2.4-.5-1.1-.2-2.1-.4-2.8-.6-.7-.2-1.3-.6-1.9-1.2-.5-.6-.8-1.4-.8-2.4 0-1.3.5-2.4 1.6-3.1 1.1-.8 2.6-1.2 4.5-1.2 1 0 1.9.1 2.9.3 1 .2 1.7.5 2.3.9l-1.2 2.5c-1.2-.7-2.5-1-4-1-1 0-1.7.1-2.2.4-.5.3-.7.6-.7 1.1 0 .5.3.9.8 1.1.5.2 1.4.4 2.5.6 1.1.2 2 .4 2.7.6.7.2 1.3.6 1.8 1.1.5.5.8 1.3.8 2.3 0 1.3-.6 2.3-1.7 3.1-.9.7-2.4 1.1-4.4 1.1zM186.6 25c1.3 0 2.6.3 3.6.9 1.1.6 1.9 1.4 2.5 2.5.6 1.1.9 2.3.9 3.7 0 1.4-.3 2.6-.9 3.7-.6 1.1-1.4 1.9-2.5 2.5-1.1.6-2.3.9-3.6.9-1.9 0-3.3-.6-4.4-1.9V44H179V25.2h3.1V27c.5-.7 1.2-1.2 2-1.5.7-.3 1.6-.5 2.5-.5zm-.4 11.5c1.2 0 2.2-.4 2.9-1.2.8-.8 1.2-1.8 1.2-3.1s-.4-2.3-1.2-3.1c-.8-.8-1.7-1.2-2.9-1.2-.8 0-1.5.2-2.1.5-.6.3-1.1.8-1.5 1.5-.4.7-.5 1.4-.5 2.3 0 .9.2 1.6.5 2.3.4.7.9 1.2 1.5 1.5.7.3 1.4.5 2.1.5zM201.8 25c2 0 3.6.5 4.7 1.5s1.6 2.4 1.6 4.4V39H205v-1.7c-.4.6-1 1.1-1.7 1.4-.7.3-1.6.5-2.6.5s-1.9-.2-2.7-.5c-.8-.4-1.4-.9-1.8-1.5-.4-.6-.6-1.4-.6-2.2 0-1.2.5-2.2 1.4-3 .9-.8 2.4-1.1 4.4-1.1h3.6v-.2c0-1-.3-1.7-.9-2.2-.6-.5-1.4-.8-2.6-.8-.8 0-1.5.1-2.3.4-.7.2-1.4.6-1.9 1l-1.3-2.4c.7-.6 1.6-1 2.6-1.3 1-.3 2.1-.4 3.2-.4zm-.4 11.9c.8 0 1.5-.2 2.2-.5.6-.4 1.1-.9 1.3-1.6v-1.6h-3.3c-1.9 0-2.8.6-2.8 1.8 0 .6.2 1.1.7 1.4.4.3 1.1.5 1.9.5zm14-9.7c.9-1.5 2.6-2.2 4.9-2.2v3.1c-.3-.1-.5-.1-.8-.1-1.3 0-2.2.4-3 1.1-.7.7-1.1 1.8-1.1 3.2V39h-3.2V25.2h3.1l.1 2zm20.6 5c0 .2 0 .5-.1 1H225c.2 1 .7 1.8 1.5 2.4.8.6 1.8.9 3 .9 1.5 0 2.8-.5 3.8-1.5l1.7 2c-.6.7-1.4 1.3-2.4 1.7-1 .4-2 .6-3.2.6-1.5 0-2.9-.3-4-.9-1.2-.6-2.1-1.4-2.7-2.5-.6-1.1-.9-2.3-.9-3.7 0-1.4.3-2.6.9-3.6.6-1.1 1.5-1.9 2.6-2.5 1.1-.6 2.3-.9 3.7-.9 1.3 0 2.6.3 3.6.9 1.1.6 1.9 1.4 2.5 2.5.6.9.9 2.2.9 3.6zm-7-4.6c-1 0-1.9.3-2.6.9-.7.6-1.1 1.4-1.3 2.4h7.9c-.1-1-.6-1.8-1.3-2.4-.8-.5-1.7-.9-2.7-.9zm18-2.6c1.7 0 3.2.5 4.2 1.5s1.6 2.5 1.6 4.5v7.9h-3.2v-7.5c0-1.2-.3-2.1-.9-2.7-.6-.6-1.4-.9-2.4-.9-1.2 0-2.1.4-2.8 1.1-.7.7-1 1.7-1 3.1v7h-3.2V25.2h3.1V27c.5-.6 1.2-1.1 2-1.5.6-.3 1.6-.5 2.6-.5zm13.9-1.3h-6v-2.9h15.4v2.9h-6V39h-3.4V23.7zm23.2 8.5c0 .2 0 .5-.1 1h-10.9c.2 1 .7 1.8 1.5 2.4.8.6 1.8.9 3 .9 1.5 0 2.8-.5 3.8-1.5l1.7 2c-.6.7-1.4 1.3-2.4 1.7-1 .4-2 .6-3.2.6-1.5 0-2.9-.3-4-.9-1.2-.6-2.1-1.4-2.7-2.5-.6-1.1-.9-2.3-.9-3.7 0-1.4.3-2.6.9-3.6.6-1.1 1.5-1.9 2.6-2.5 1.1-.6 2.3-.9 3.7-.9 1.3 0 2.6.3 3.6.9 1.1.6 1.9 1.4 2.5 2.5.6.9.9 2.2.9 3.6zm-7-4.6c-1 0-1.9.3-2.6.9-.7.6-1.1 1.4-1.3 2.4h7.9c-.1-1-.6-1.8-1.3-2.4-.8-.5-1.6-.9-2.7-.9zm13.2-.4c.9-1.5 2.6-2.2 4.9-2.2v3.1c-.3-.1-.5-.1-.8-.1-1.3 0-2.2.4-3 1.1-.7.7-1.1 1.8-1.1 3.2V39h-3.2V25.2h3.1l.1 2zm10.8 0c.9-1.5 2.6-2.2 4.9-2.2v3.1c-.3-.1-.5-.1-.8-.1-1.3 0-2.2.4-3 1.1-.7.7-1.1 1.8-1.1 3.2V39H298V25.2h3.1v2zM314 25c2 0 3.6.5 4.7 1.5s1.6 2.4 1.6 4.4V39h-3.1v-1.7c-.4.6-1 1.1-1.7 1.4-.7.3-1.6.5-2.6.5s-1.9-.2-2.7-.5c-.8-.4-1.4-.9-1.8-1.5-.4-.6-.6-1.4-.6-2.2 0-1.2.5-2.2 1.4-3 .9-.8 2.4-1.1 4.4-1.1h3.6v-.2c0-1-.3-1.7-.9-2.2-.6-.5-1.4-.8-2.6-.8-.8 0-1.5.1-2.3.4-.7.2-1.4.6-1.9 1l-1.3-2.4c.7-.6 1.6-1 2.6-1.3 1-.3 2.1-.4 3.2-.4zm-.4 11.9c.8 0 1.5-.2 2.2-.5.6-.4 1.1-.9 1.4-1.6v-1.6h-3.4c-1.9 0-2.8.6-2.8 1.8 0 .6.2 1.1.7 1.4.4.3 1 .5 1.9.5zm19.3-19.1h-3.2V17h7.3v.8h-3.2v8.3h-1v-8.3h.1zM348 17v9.1h-.9v-7.3l-3.6 6.1h-.5l-3.6-6.1V26h-.9v-9h.8l3.9 6.7 3.9-6.7h.9zM144 52.7h-4v-1.9h10.3v1.9h-4v10.2H144V52.7zM155 63c-.9 0-1.8-.2-2.5-.6-.8-.4-1.3-1-1.8-1.7-.4-.7-.6-1.5-.6-2.5s.2-1.7.6-2.4c.4-.7 1-1.3 1.8-1.7.8-.4 1.6-.6 2.5-.6.9 0 1.8.2 2.5.6.8.4 1.3 1 1.7 1.7.4.7.6 1.5.6 2.4 0 .9-.2 1.7-.6 2.5-.4.7-1 1.3-1.7 1.7-.7.4-1.6.6-2.5.6zm0-1.9c.8 0 1.5-.3 2-.8s.8-1.2.8-2.1c0-.9-.3-1.6-.8-2.1s-1.2-.8-2-.8-1.5.3-2 .8-.8 1.2-.8 2.1c0 .9.3 1.6.8 2.1.5.6 1.2.8 2 .8zm19.9 1.8l-2.5-3.5h-3.2v3.5H167V50.8h5c1.1 0 2 .2 2.7.5.8.3 1.4.8 1.8 1.5.4.6.6 1.4.6 2.3 0 .9-.2 1.7-.7 2.4-.4.7-1.1 1.1-1.9 1.5l2.8 4h-2.4v-.1zm-.1-7.8c0-.8-.3-1.4-.8-1.8-.5-.4-1.3-.6-2.2-.6h-2.6v4.8h2.6c1 0 1.7-.2 2.2-.6.6-.5.8-1.1.8-1.8zm13.3 3.2v.6h-7.3c.1.7.5 1.2 1 1.6.5.4 1.2.6 2 .6 1 0 1.9-.3 2.5-1l1.2 1.3c-.4.5-.9.9-1.6 1.1-.6.3-1.4.4-2.1.4-1 0-1.9-.2-2.7-.6-.8-.4-1.4-1-1.8-1.7-.4-.7-.6-1.5-.6-2.5 0-.9.2-1.7.6-2.4.4-.7 1-1.3 1.7-1.7.7-.4 1.5-.6 2.5-.6.9 0 1.7.2 2.4.6.7.4 1.3 1 1.7 1.7.3.8.5 1.7.5 2.6zm-4.7-3c-.7 0-1.3.2-1.8.6-.5.4-.8.9-.9 1.6h5.2c-.1-.7-.4-1.2-.8-1.6-.4-.4-1-.6-1.7-.6zM193 63c-.8 0-1.5-.1-2.2-.3-.7-.2-1.3-.4-1.7-.7l.8-1.6c.4.3.9.5 1.5.7.6.2 1.2.2 1.7.2 1.3 0 1.9-.3 1.9-1 0-.3-.2-.5-.5-.7-.3-.1-.8-.2-1.6-.4-.8-.1-1.4-.2-1.9-.4s-.9-.4-1.2-.8c-.3-.4-.5-.9-.5-1.6 0-.9.4-1.6 1.1-2.1.7-.5 1.7-.8 3-.8.6 0 1.3.1 1.9.2.6.1 1.2.3 1.6.6l-.8 1.6c-.8-.5-1.7-.7-2.6-.7-.6 0-1.1.1-1.5.3-.3.2-.5.4-.5.7 0 .3.2.6.5.7.4.1.9.3 1.6.4.7.1 1.3.2 1.8.4s.9.4 1.2.8c.3.4.5.9.5 1.5 0 .9-.4 1.6-1.1 2.1-.6.6-1.7.9-3 .9zm11.6-.6c-.3.2-.6.4-.9.5-.4.1-.7.2-1.1.2-1 0-1.8-.3-2.4-.8-.6-.5-.8-1.3-.8-2.3v-4.4h-1.5v-1.7h1.5v-2.1h2.2v2.1h2.5v1.7h-2.5V60c0 .5.1.8.3 1 .2.2.5.3 1 .3s.9-.1 1.2-.4l.5 1.5zm5.7.6c-.9 0-1.8-.2-2.5-.6-.8-.4-1.3-1-1.8-1.7-.4-.7-.6-1.5-.6-2.5s.2-1.7.6-2.4c.4-.7 1-1.3 1.8-1.7.8-.4 1.6-.6 2.5-.6.9 0 1.8.2 2.5.6.8.4 1.3 1 1.7 1.7.4.7.6 1.5.6 2.4 0 .9-.2 1.7-.6 2.5-.4.7-1 1.3-1.7 1.7-.7.4-1.6.6-2.5.6zm0-1.9c.8 0 1.5-.3 2-.8s.8-1.2.8-2.1c0-.9-.3-1.6-.8-2.1s-1.2-.8-2-.8-1.5.3-2 .8-.8 1.2-.8 2.1c0 .9.3 1.6.8 2.1.5.6 1.2.8 2 .8zm9-6.1c.6-1 1.7-1.5 3.3-1.5v2.1c-.2 0-.4-.1-.5-.1-.8 0-1.5.2-2 .7-.5.5-.7 1.2-.7 2.1v4.5h-2.2v-9.2h2.1V55zm13.8 3.3v.6h-7.3c.1.7.5 1.2 1 1.6.5.4 1.2.6 2 .6 1 0 1.9-.3 2.5-1l1.2 1.3c-.4.5-.9.9-1.6 1.1-.6.3-1.3.4-2.1.4-1 0-1.9-.2-2.7-.6-.8-.4-1.4-1-1.8-1.7-.4-.7-.6-1.5-.6-2.5 0-.9.2-1.7.6-2.4.4-.7 1-1.3 1.7-1.7.7-.4 1.5-.6 2.5-.6.9 0 1.7.2 2.4.6.7.4 1.3 1 1.7 1.7.3.8.5 1.7.5 2.6zm-4.7-3c-.7 0-1.3.2-1.8.6-.5.4-.8.9-.9 1.6h5.2c-.1-.7-.4-1.2-.8-1.6-.4-.4-1-.6-1.7-.6zm14.2-2.6h-4v-1.9h10.3v1.9h-4v10.2h-2.2l-.1-10.2zm9.6 2.3c.6-1 1.7-1.5 3.3-1.5v2.1c-.2 0-.4-.1-.5-.1-.8 0-1.5.2-2 .7-.5.5-.7 1.2-.7 2.1v4.5h-2.2v-9.2h2.1V55zm14.1-1.4v9.2h-2.1v-1.2c-.3.4-.8.7-1.3 1-.5.2-1.1.3-1.7.3-1.2 0-2.2-.3-2.9-1-.7-.7-1.1-1.7-1.1-3.1v-5.3h2.2v5c0 .8.2 1.5.6 1.9.4.4.9.6 1.6.6.8 0 1.4-.2 1.8-.7.5-.5.7-1.2.7-2.1v-4.7l2.2.1zM272 63c-.8 0-1.5-.1-2.2-.3-.7-.2-1.3-.4-1.7-.7l.8-1.6c.4.3.9.5 1.5.7.6.2 1.2.2 1.7.2 1.3 0 1.9-.3 1.9-1 0-.3-.2-.5-.5-.7-.3-.1-.8-.2-1.6-.4-.8-.1-1.4-.2-1.9-.4s-.9-.4-1.2-.8c-.3-.4-.5-.9-.5-1.6 0-.9.4-1.6 1.1-2.1.7-.5 1.7-.8 3-.8.6 0 1.3.1 1.9.2.6.1 1.2.3 1.6.6l-.8 1.6c-.8-.5-1.7-.7-2.6-.7-.6 0-1.1.1-1.5.3-.3.2-.5.4-.5.7 0 .3.2.6.5.7.4.1.9.3 1.6.4.7.1 1.3.2 1.8.4s.9.4 1.2.8c.3.4.5.9.5 1.5 0 .9-.4 1.6-1.1 2.1-.7.6-1.7.9-3 .9zm11.6-.6c-.3.2-.6.4-.9.5-.4.1-.7.2-1.1.2-1 0-1.8-.3-2.4-.8-.6-.5-.8-1.3-.8-2.3v-4.4h-1.5v-1.7h1.5v-2.1h2.2v2.1h2.5v1.7h-2.5V60c0 .5.1.8.3 1 .2.2.5.3 1 .3s.9-.1 1.2-.4l.5 1.5z" fill="#fff"/><path d="M44.6 20.1c-1.5-.3-3-.5-4.6-.5-3.9 0-7.6 1.1-10.8 3.1l-4.8-2.4c3.3-2.6 7.1-4.3 11.2-5 .4-.1.8-.1 1.2-.2L40 3.9 43.2 15l1.4 5.1z" fill="#2E58A6"/><path d="M28.1 23.4c-3.7 2.7-6.5 6.5-7.8 11l-5.1 1.5c.7-4 2.3-7.9 4.8-11.1.3-.3.5-.6.8-.9L18 18.3l5.5 2.8 4.6 2.3z" fill="#122164"/><path d="M22.6 50.8l-2.4 4.8c-2.6-3.3-4.3-7.1-5-11.2-.1-.4-.1-.8-.2-1.2L3.9 40 15 36.9l5-1.4c-.3 1.5-.5 3-.5 4.6.1 3.9 1.2 7.5 3.1 10.7z" fill="#12491D"/><path d="M35.8 64.8c-4-.7-7.9-2.3-11.1-4.8-.3-.2-.6-.5-.9-.8L18.3 62l2.8-5.5 2.3-4.7c2.6 3.7 6.5 6.5 11 7.8l1.4 5.2z" fill="#237D26"/><path d="M55.5 59.8c-3.3 2.6-7.1 4.3-11.2 5-.4.1-.8.1-1.2.2L40 76.1 36.8 65l-1.4-5.1c1.5.4 3 .5 4.6.5 4 0 7.6-1.1 10.8-3.1l4.7 2.5z" fill="#2DA131"/><path d="M59.2 56.3l2.8 5.5-5.5-2.8-4.7-2.3c3.7-2.6 6.5-6.5 7.8-11l5.2-1.5c-.7 4-2.3 7.9-4.8 11.1-.3.3-.5.7-.8 1z" fill="#41AA54"/><path d="M76.1 40L65 43.2l-5.1 1.5c.4-1.5.5-3.1.5-4.7 0-3.9-1.1-7.6-3.1-10.7l2.4-4.8c2.6 3.3 4.3 7.1 5 11.2.1.4.1.8.2 1.2L76.1 40z" fill="#01A0C6"/><path d="M61.8 18.1L59 23.6l-2.3 4.6c-2.6-3.8-6.5-6.6-11.1-7.9l-1.5-5.1c4.1.7 7.9 2.3 11.1 4.8.3.3.6.5.9.8l5.7-2.7z" fill="#4FA0CA"/><path fill-rule="evenodd" clip-rule="evenodd" d="M80 40l-14-4c-.7-4.8-2.7-9.1-5.7-12.7l3.9-7.7-7.7 3.9C53 16.7 48.7 14.7 44 14L40 0l-4 14c-4.8.7-9.2 2.8-12.7 5.7l-7.7-3.9 3.9 7.7C16.7 27 14.7 31.3 14 36L0 40l14 4c.7 4.8 2.8 9.1 5.7 12.7l-3.9 7.7 7.8-3.9c3.5 2.8 7.8 4.8 12.4 5.5l4 14 4-14c4.8-.7 9.1-2.8 12.7-5.7l7.7 3.9-3.9-7.7C63.4 53 65.3 48.7 66 44l14-4zM58.2 21.1l1.2-.6-.5 1.1v.1l-.9 1.4-1.9 3.9c-2.4-3-5.6-5.3-9.3-6.5l-1.1-3.8c3.3.8 6.3 2.3 9 4.3.3.2.6.5.9.7l.5.5 2.1-1.1zm-21.2-5l.7-.1.6-2.2v-.1L40 7.9l1.7 5.9v.1l.4 1.5 1.2 4.2c-1.1-.2-2.2-.3-3.3-.3-3.6 0-7 .9-9.9 2.5L26.5 20c2.8-1.9 6-3.2 9.3-3.8.4 0 .8-.1 1.2-.1zm-16.5 4.6l1.1.6h.1l5.3 2.6c-3 2.4-5.2 5.6-6.5 9.3l-3.8 1.1c.8-3.2 2.2-6.3 4.3-8.9.2-.3.5-.6.7-.9l.5-.5-1-2.1v-.1l-.7-1.1zm-6.7 21l-6-1.7 5.9-1.7h.1l5.7-1.6c-.2 1.1-.3 2.2-.3 3.3 0 3.6.9 7 2.5 10L20 53.5c-1.9-2.8-3.2-6-3.8-9.3-.1-.4-.1-.7-.2-1.1v-.8l-2.2-.6zM21.9 59l-1.2.6.6-1.1v-.1L22 57l2-3.9c2.4 2.9 5.6 5.2 9.3 6.5l1.1 3.8c-3.2-.8-6.3-2.2-8.9-4.3-.3-.2-.6-.4-.9-.7l-.5-.5-2.2 1.1zm-.2-19c0-10.1 8.2-18.3 18.3-18.3 10.1 0 18.3 8.2 18.3 18.3 0 10.1-8.2 18.3-18.3 18.3-10.1 0-18.3-8.2-18.3-18.3zM43 63.9l-.7.1-.6 2.2v.1L40 72.1l-1.7-5.9v-.1l-1.6-5.7c1.1.2 2.2.3 3.3.3 3.6 0 7-.9 9.9-2.5l3.5 1.8c-2.8 1.9-6 3.2-9.3 3.8-.3 0-.7 0-1.1.1zm16.6-4.5l-1.1-.6h-.1l-1.4-.7-3.9-2c3-2.4 5.3-5.6 6.5-9.3l3.8-1.1c-.8 3.2-2.2 6.3-4.3 8.9-.2.3-.5.6-.7.9l-.5.5 1 2v.1l.7 1.3zm.8-16c.2-1.1.3-2.2.3-3.4 0-3.6-.9-7-2.5-9.9l1.8-3.5c1.9 2.8 3.2 6 3.8 9.3.1.4.1.7.2 1.1l.1.7 2.2.6h.1l5.9 1.7-5.9 1.7h-.1l-5.9 1.7z" fill="#fff"/></svg>